<svg width="1920" height="1100" viewBox="0 0 1920 1100" fill="none" xmlns="http://www.w3.org/2000/svg">
  <defs>
    <linearGradient id="bg2" x1="120" y1="70" x2="1830" y2="1050" gradientUnits="userSpaceOnUse">
      <stop stop-color="#102139"/>
      <stop offset="0.48" stop-color="#1A3C57"/>
      <stop offset="1" stop-color="#2B6E88"/>
    </linearGradient>
    <radialGradient id="glow21" cx="0" cy="0" r="1" gradientUnits="userSpaceOnUse" gradientTransform="translate(1460 290) rotate(90) scale(520 620)">
      <stop stop-color="#7FE6E0" stop-opacity="0.76"/>
      <stop offset="1" stop-color="#7FE6E0" stop-opacity="0"/>
    </radialGradient>
    <radialGradient id="glow22" cx="0" cy="0" r="1" gradientUnits="userSpaceOnUse" gradientTransform="translate(1660 850) rotate(90) scale(320 360)">
      <stop stop-color="#F6B06C" stop-opacity="0.46"/>
      <stop offset="1" stop-color="#F6B06C" stop-opacity="0"/>
    </radialGradient>
    <linearGradient id="panel2" x1="1070" y1="170" x2="1730" y2="890" gradientUnits="userSpaceOnUse">
      <stop stop-color="white" stop-opacity="0.2"/>
      <stop offset="1" stop-color="white" stop-opacity="0.06"/>
    </linearGradient>
  </defs>

  <rect width="1920" height="1100" rx="40" fill="url(#bg2)"/>
  <rect width="1920" height="1100" rx="40" fill="url(#glow21)"/>
  <rect width="1920" height="1100" rx="40" fill="url(#glow22)"/>

  <circle cx="1262" cy="212" r="94" fill="white" fill-opacity="0.05"/>
  <circle cx="1715" cy="268" r="112" fill="white" fill-opacity="0.05"/>
  <circle cx="1595" cy="916" r="132" fill="white" fill-opacity="0.05"/>

  <path d="M1090 180C1090 150.176 1114.18 126 1144 126H1674C1703.82 126 1728 150.176 1728 180V838C1728 867.824 1703.82 892 1674 892H1144C1114.18 892 1090 867.824 1090 838V180Z" fill="url(#panel2)" stroke="white" stroke-opacity="0.14" stroke-width="2"/>

  <g opacity="0.78">
    <rect x="1148" y="184" width="212" height="108" rx="26" fill="#11263A" fill-opacity="0.42" stroke="white" stroke-opacity="0.1"/>
    <circle cx="1210" cy="238" r="28" fill="#7FE6E0"/>
    <path d="M1196 238L1205 247L1224 228" stroke="#17324D" stroke-width="7" stroke-linecap="round" stroke-linejoin="round"/>
    <rect x="1256" y="220" width="74" height="18" rx="9" fill="white" fill-opacity="0.72"/>
    <rect x="1256" y="252" width="56" height="14" rx="7" fill="white" fill-opacity="0.22"/>
  </g>

  <g opacity="0.84">
    <rect x="1405" y="178" width="126" height="126" rx="28" fill="white" fill-opacity="0.08"/>
    <circle cx="1455" cy="228" r="30" stroke="#F9E0C6" stroke-width="12"/>
    <path d="M1477 250L1512 285" stroke="#F9E0C6" stroke-width="12" stroke-linecap="round"/>
  </g>

  <g opacity="0.72">
    <circle cx="1604" cy="228" r="10" fill="#9DE5E1"/>
    <circle cx="1662" cy="204" r="10" fill="#9DE5E1"/>
    <circle cx="1695" cy="255" r="11" fill="#9DE5E1"/>
    <path d="M1614 224L1652 208M1670 212L1686 246M1614 233L1684 249" stroke="#9DE5E1" stroke-width="4" stroke-linecap="round"/>
  </g>

  <g>
    <rect x="1160" y="336" width="420" height="320" rx="34" fill="#F2F6F9" fill-opacity="0.9"/>
    <path d="M1206 606H1518" stroke="#D0DDE7" stroke-width="4"/>
    <path d="M1206 376V606" stroke="#D0DDE7" stroke-width="4"/>
    <path d="M1238 568L1290 522L1356 536L1427 452L1506 409" stroke="#EB6E3F" stroke-width="12" stroke-linecap="round" stroke-linejoin="round"/>
    <circle cx="1238" cy="568" r="12" fill="#17324D"/>
    <circle cx="1290" cy="522" r="12" fill="#17324D"/>
    <circle cx="1356" cy="536" r="12" fill="#17324D"/>
    <circle cx="1427" cy="452" r="12" fill="#17324D"/>
    <circle cx="1506" cy="409" r="12" fill="#17324D"/>
    <rect x="1216" y="392" width="180" height="22" rx="11" fill="#17324D" fill-opacity="0.1"/>
    <rect x="1216" y="426" width="132" height="18" rx="9" fill="#17324D" fill-opacity="0.08"/>
    <rect x="1216" y="458" width="106" height="18" rx="9" fill="#17324D" fill-opacity="0.06"/>
    <path d="M1232 640H1502" stroke="#D0DDE7" stroke-width="18" stroke-linecap="round"/>
    <path d="M1232 640H1432" stroke="#7FE6E0" stroke-width="18" stroke-linecap="round"/>
  </g>

  <g>
    <path d="M1513 414L1540 616C1541.98 630.838 1529.84 644 1514.88 644H1437.12C1422.16 644 1410.02 630.838 1412 616L1439 414H1513Z" fill="#F8F1EA"/>
    <path d="M1447 414H1505L1492 313H1460L1447 414Z" fill="#E8F0F5"/>
    <path d="M1458 314C1458 300.745 1468.75 290 1482 290C1495.25 290 1506 300.745 1506 314V330H1458V314Z" fill="#8DB1C7"/>
    <path d="M1450 446H1502L1492 602C1491.26 613.525 1481.69 622.5 1470.14 622.5H1481.86C1470.31 622.5 1460.74 613.525 1460 602L1450 446Z" fill="#73D2CB"/>
    <path d="M1462 514H1490" stroke="#FDFDFD" stroke-width="8" stroke-linecap="round"/>
    <path d="M1462 548H1490" stroke="#FDFDFD" stroke-width="8" stroke-linecap="round" stroke-opacity="0.8"/>
  </g>

  <g>
    <rect x="1572" y="372" width="96" height="244" rx="28" fill="#F8F1EA"/>
    <path d="M1590 468C1590 450.327 1604.33 436 1622 436C1639.67 436 1654 450.327 1654 468V578C1654 595.673 1639.67 610 1622 610C1604.33 610 1590 595.673 1590 578V468Z" fill="#EB6E3F"/>
    <path d="M1598 560C1605.67 564 1613.67 566 1622 566C1630.33 566 1638.33 564 1646 560" stroke="#FFFFFF" stroke-width="6" stroke-linecap="round"/>
  </g>

  <g>
    <circle cx="1390" cy="788" r="96" fill="#F2C39B"/>
    <path d="M1311 780C1320 731.403 1357.08 696 1404.5 696C1447.81 696 1484.8 725.56 1487 774C1468.91 769.184 1450.38 766.729 1431.66 766.691C1393.38 766.613 1363.66 777.252 1335 796L1311 780Z" fill="#17324D"/>
    <path d="M1276 980C1276 897.71 1342.71 831 1425 831H1462C1544.29 831 1611 897.71 1611 980V1100H1276V980Z" fill="#DEE7EF"/>
    <path d="M1368 886H1464V948C1464 974.51 1442.51 996 1416 996C1389.49 996 1368 974.51 1368 948V886Z" fill="#D89C72"/>
    <path d="M1320 1016H1566" stroke="#A7BCCB" stroke-width="18" stroke-linecap="round"/>
    <path d="M1320 1060H1488" stroke="#A7BCCB" stroke-width="18" stroke-linecap="round" stroke-opacity="0.78"/>
  </g>

  <path d="M1100 930H1738" stroke="white" stroke-opacity="0.08" stroke-width="2"/>
</svg>
